<svg width="64" height="64" viewBox="0 0 64 64" fill="none" xmlns="http://www.w3.org/2000/svg">
<g id="terminal-svgrepo-com 1">
<g id="SVGRepo_iconCarrier">
<g id="System / Terminal">
<path id="Vector" d="M38.6667 36H32M25.3333 29.3333L29.3333 32.6666L25.3333 36M20 37.0669V26.9336C20 25.4401 20 24.6928 20.2907 24.1224C20.5463 23.6206 20.954 23.2129 21.4557 22.9573C22.0262 22.6666 22.7735 22.6666 24.2669 22.6666H39.7336C41.2271 22.6666 41.9728 22.6666 42.5432 22.9573C43.0449 23.2129 43.454 23.6206 43.7096 24.1224C44 24.6922 44 25.4386 44 26.9292V37.0708C44 38.5613 44 39.3066 43.7096 39.8765C43.454 40.3782 43.0449 40.7873 42.5432 41.0429C41.9733 41.3333 41.228 41.3333 39.7375 41.3333H24.2625C22.772 41.3333 22.0256 41.3333 21.4557 41.0429C20.954 40.7873 20.5463 40.3782 20.2907 39.8765C20 39.3061 20 38.5604 20 37.0669Z" stroke="white" stroke-width="2.66667" stroke-linecap="round" stroke-linejoin="round"/>
</g>
</g>
</g>
</svg>
