<svg width="28" height="28" viewBox="0 0 28 28" fill="none" xmlns="http://www.w3.org/2000/svg">
<g id="SVGRepo_iconCarrier">
<g id="Group">
<path id="Vector" d="M0 24.3897C0 26.3838 1.6164 28 3.61033 28H24.3897C26.3838 28 28 26.3836 28 24.3897V3.61033C28 1.61618 26.3836 0 24.3897 0H3.61033C1.61618 0 0 1.6164 0 3.61033V24.3897Z" fill="#563D7C"/>
<path id="Vector_2" d="M11.611 12.3854V8.42019H15.1013C15.4337 8.42019 15.7543 8.44789 16.063 8.50329C16.3716 8.5587 16.6447 8.65763 16.8821 8.80009C17.1196 8.94256 17.3095 9.14042 17.452 9.39369C17.5944 9.64696 17.6657 9.97145 17.6657 10.3672C17.6657 11.0795 17.452 11.594 17.0246 11.9105C16.5972 12.2271 16.0511 12.3854 15.3863 12.3854H11.611ZM7.88319 5.52344V22.4766H16.0986C16.8584 22.4766 17.5984 22.3816 18.3186 22.1916C19.0389 22.0017 19.6799 21.7088 20.2419 21.3131C20.8038 20.9174 21.251 20.4069 21.5834 19.7816C21.9158 19.1564 22.082 18.4164 22.082 17.5616C22.082 16.501 21.8248 15.5948 21.3104 14.8429C20.7959 14.091 20.0163 13.5647 18.9716 13.2639C19.7314 12.8999 20.3052 12.4329 20.693 11.8631C21.0808 11.2932 21.2747 10.5809 21.2747 9.7261C21.2747 8.93464 21.1441 8.26982 20.883 7.73162C20.6218 7.19342 20.2538 6.76208 19.7789 6.43758C19.304 6.11308 18.7341 5.8796 18.0693 5.73713C17.4045 5.59467 16.6684 5.52344 15.8611 5.52344H7.88319ZM11.611 19.5798V14.926H15.6712C16.4785 14.926 17.1275 15.112 17.6182 15.484C18.1089 15.856 18.3542 16.4773 18.3542 17.3479C18.3542 17.7911 18.2791 18.1552 18.1287 18.4401C17.9783 18.725 17.7765 18.9506 17.5232 19.1168C17.2699 19.283 16.9771 19.4017 16.6447 19.473C16.3123 19.5442 15.964 19.5798 15.6 19.5798H11.611Z" fill="white"/>
</g>
</g>
</svg>
