<svg width="14" height="22" viewBox="0 0 14 22" fill="none" xmlns="http://www.w3.org/2000/svg">
<g id="SVGRepo_iconCarrier">
<path id="Vector" fill-rule="evenodd" clip-rule="evenodd" d="M7 11C7 9.06704 8.56704 7.5 10.5 7.5C12.433 7.5 14 9.06704 14 11C14 12.933 12.433 14.5 10.5 14.5C8.56704 14.5 7 12.933 7 11Z" fill="#1ABCFE"/>
<path id="Vector_2" fill-rule="evenodd" clip-rule="evenodd" d="M0 18C0 16.067 1.567 14.5 3.5 14.5H7V18C7 19.933 5.43296 21.5 3.5 21.5C1.567 21.5 0 19.933 0 18Z" fill="#0ACF83"/>
<path id="Vector_3" fill-rule="evenodd" clip-rule="evenodd" d="M7 0.5V7.5H10.5C12.433 7.5 14 5.93296 14 4C14 2.067 12.433 0.5 10.5 0.5H7Z" fill="#FF7262"/>
<path id="Vector_4" fill-rule="evenodd" clip-rule="evenodd" d="M0 4C0 5.93296 1.567 7.5 3.5 7.5H7V0.5H3.5C1.567 0.5 0 2.067 0 4Z" fill="#F24E1E"/>
<path id="Vector_5" fill-rule="evenodd" clip-rule="evenodd" d="M0 11C0 12.933 1.567 14.5 3.5 14.5H7V7.5H3.5C1.567 7.5 0 9.06704 0 11Z" fill="#A259FF"/>
</g>
</svg>
