<svg width="26" height="26" viewBox="0 0 26 26" fill="none" xmlns="http://www.w3.org/2000/svg">
<g id="SVGRepo_iconCarrier">
<path id="Vector" d="M1.26219 14.2366C0.57927 13.5536 0.57927 12.4464 1.26219 11.7634L11.7634 1.26219C12.4464 0.57927 13.5536 0.57927 14.2366 1.26219L24.7378 11.7634C25.4207 12.4464 25.4207 13.5536 24.7378 14.2366L14.2366 24.7378C13.5536 25.4207 12.4464 25.4207 11.7634 24.7378L1.26219 14.2366Z" fill="#EE513B"/>
<path id="Vector_2" d="M9.63029 3.42883L8.5669 4.49226L11.3134 7.2388C11.2023 7.47717 11.1403 7.74301 11.1403 8.02335C11.1403 8.81925 11.6403 9.49834 12.3434 9.76355V16.4823C11.6403 16.7475 11.1403 17.4266 11.1403 18.2225C11.1403 19.2494 11.9728 20.0819 12.9997 20.0819C14.0266 20.0819 14.859 19.2494 14.859 18.2225C14.859 17.501 14.448 16.8754 13.8474 16.5672V9.77274L16.4728 12.3982C16.3671 12.6317 16.3083 12.891 16.3083 13.164C16.3083 14.1909 17.1408 15.0234 18.1677 15.0234C19.1946 15.0234 20.027 14.1909 20.027 13.164C20.027 12.1371 19.1946 11.3046 18.1677 11.3046C17.9681 11.3046 17.7759 11.336 17.5957 11.3942L14.776 8.57451C14.83 8.40039 14.859 8.21524 14.859 8.02335C14.859 6.99644 14.0266 6.16396 12.9997 6.16396C12.8078 6.16396 12.6227 6.19304 12.4485 6.24702L9.63029 3.42883Z" fill="white"/>
</g>
</svg>
