<svg width="28" height="28" viewBox="0 0 28 28" fill="none" xmlns="http://www.w3.org/2000/svg">
<g id="SVGRepo_iconCarrier">
<path id="Vector" d="M23.8 0H4.2C1.8804 0 0 1.8804 0 4.2V23.8C0 26.1196 1.8804 28 4.2 28H23.8C26.1196 28 28 26.1196 28 23.8V4.2C28 1.8804 26.1196 0 23.8 0Z" fill="#F7DF1E"/>
<path id="Vector_2" d="M17.7188 20.2344C18.2656 21.1641 19.0312 21.8203 20.2891 21.8203C21.3828 21.8203 22.0938 21.2734 22.0938 20.5078C22.0938 19.6328 21.3828 19.3047 20.1797 18.7578L19.5234 18.4844C17.6094 17.6641 16.3516 16.6797 16.3516 14.5469C16.3516 12.5781 17.8281 11.0469 20.1797 11.0469C21.875 11.0469 23.0781 11.6484 23.8984 13.1797L21.875 14.4922C21.4375 13.6719 20.9453 13.3438 20.1797 13.3438C19.4141 13.3438 18.9219 13.8359 18.9219 14.4922C18.9219 15.2578 19.4141 15.5859 20.5625 16.0781L21.2188 16.3516C23.4609 17.3359 24.7188 18.2656 24.7188 20.5078C24.7188 22.8594 22.8594 24.1719 20.3438 24.1719C17.8828 24.1719 16.2969 23.0234 15.5312 21.4922L17.7188 20.2344ZM8.42188 20.4531C8.85938 21.1641 9.1875 21.8203 10.1172 21.8203C10.9922 21.8203 11.5391 21.4922 11.5391 20.1797V11.1016H14.1641V20.0703C14.1641 22.8047 12.5781 24.0078 10.2266 24.0078C8.09375 24.0078 6.89062 22.9141 6.28906 21.6016L8.42188 20.4531Z" fill="black"/>
</g>
</svg>
