<svg width="26" height="24" viewBox="0 0 26 24" fill="none" xmlns="http://www.w3.org/2000/svg">
<g id="SVGRepo_iconCarrier">
<path id="Vector" d="M1.77113 1.07739H24.2289V22.9226H1.77113V1.07739Z" fill="#0C0824"/>
<path id="Vector_2" d="M1.77113 1.0774H24.2289V22.9226H1.77113V1.0774ZM0.75 23.9438H25.25V0.0562744H0.75V23.9438ZM17.2674 9.85628C16.4606 9.85628 16.185 10.2649 16.185 10.6018C16.185 10.9693 16.3687 11.2248 17.4511 11.7857C19.0541 12.5618 19.5511 13.3064 19.5511 14.3993C19.5511 16.0329 18.306 16.9105 16.6216 16.9105C15.8987 16.9373 15.1803 16.7871 14.5286 16.473C14.4569 16.4424 14.4472 16.3916 14.4472 16.3094V14.807C14.4472 14.7046 14.498 14.674 14.5698 14.7256C15.1817 15.1192 15.8941 15.3282 16.6216 15.3276C17.4284 15.3276 17.7652 14.9908 17.7652 14.5314C17.7652 14.1639 17.5308 13.8375 16.4991 13.3064C15.0493 12.6125 14.4472 11.9064 14.4472 10.7339C14.4472 9.41703 15.478 8.32503 17.2648 8.32503C17.8867 8.29832 18.5077 8.39558 19.0917 8.61115C19.1254 8.63298 19.1526 8.66337 19.1706 8.6992C19.1886 8.73504 19.1967 8.77501 19.1941 8.81502V10.215C19.1941 10.2964 19.1434 10.348 19.041 10.3174C18.5013 10.0067 17.8875 9.84794 17.2648 9.85802L17.2674 9.85628ZM8.48763 11.0708C8.72213 11.0909 8.90588 11.0909 9.3145 11.0909C10.5089 11.0909 11.6315 10.6726 11.6315 9.04952C11.6315 7.75277 10.8247 7.10002 9.46763 7.10002C9.059 7.10002 8.67138 7.12015 8.48763 7.13065V11.0708ZM6.67025 5.64577C6.67025 5.57402 6.81287 5.52327 6.89512 5.52327C7.54875 5.49265 8.51825 5.47252 9.52888 5.47252C12.3569 5.47252 13.4594 7.0239 13.4594 9.0049C13.4594 11.5975 11.5807 12.7105 9.27425 12.7105C8.88662 12.7105 8.75362 12.6904 8.478 12.6904V16.6104C8.478 16.6918 8.44738 16.7329 8.3555 16.7329H6.79362C6.71225 16.7329 6.67113 16.7023 6.67113 16.6104V5.65015L6.67025 5.64577Z" fill="#31C5F0"/>
</g>
</svg>
