<svg width="37" height="28" viewBox="0 0 37 28" fill="none" xmlns="http://www.w3.org/2000/svg">
<g id="SVGRepo_iconCarrier">
<path id="Vector" d="M31.088 15.879C29.9549 15.8805 28.8369 16.1362 27.8186 16.6267C27.4998 16.1047 27.2535 15.5426 27.0866 14.9558C26.9907 14.4958 26.9685 14.0237 27.0209 13.5569C27.131 13.0433 27.2739 12.537 27.4487 12.0411C27.4423 11.9762 27.3701 11.6698 26.6446 11.6596C25.919 11.6494 25.294 11.7957 25.227 11.9852C25.101 12.3312 24.9998 12.6856 24.9241 13.0457C24.3236 14.5075 23.5845 15.91 22.7166 17.2346C22.2303 16.4479 22.0303 15.5212 22.1495 14.6073C22.2597 14.0937 22.4026 13.5874 22.5774 13.0915C22.5709 13.0266 22.4988 12.7202 21.7732 12.71C21.0477 12.6998 20.4227 12.8461 20.3556 13.0355C20.2886 13.225 20.2036 13.6714 20.0528 14.0961C19.902 14.5209 18.1416 18.402 17.6803 19.4028C17.4431 19.9114 17.2382 20.326 17.0939 20.6058C17.0871 20.6239 17.0784 20.6414 17.0681 20.6579C16.9393 20.8983 16.871 21.0292 16.871 21.0292V21.0356C16.7717 21.2111 16.6661 21.3739 16.6132 21.3739C16.5211 21.0106 16.5255 20.6299 16.6261 20.2688C16.8838 18.9221 17.5153 16.8289 17.5089 16.7564C17.5089 16.717 17.6274 16.3533 17.1003 16.1651C16.9781 16.1077 16.8408 16.0891 16.7074 16.1119C16.574 16.1347 16.4511 16.1977 16.3555 16.2923C16.3091 16.2923 16.2769 16.4029 16.2769 16.4029C16.2769 16.4029 16.8503 14.0491 15.1827 14.0491C14.5334 14.178 13.9166 14.4337 13.3689 14.8013C12.8211 15.1688 12.3534 15.6407 11.9932 16.1893C11.5447 16.4296 10.5898 16.9434 9.56782 17.4966C9.18121 17.7115 8.77655 17.9264 8.40154 18.1324C8.37576 18.107 8.3487 18.0739 8.32293 18.0485C6.29321 15.9146 2.56238 14.4089 2.72347 11.5541C2.78275 10.5138 3.14488 7.78229 9.88743 4.46451C15.4366 1.76604 19.853 2.51378 20.6172 4.17203C21.7114 6.53987 18.2512 10.936 12.5177 11.5731C11.8834 11.7001 11.2283 11.6848 10.6008 11.5283C9.97332 11.3718 9.38951 11.0781 8.89254 10.669C8.58969 10.3434 8.5433 10.3244 8.43118 10.3892C8.24689 10.4871 8.36546 10.7796 8.43118 10.9487C8.64991 11.3393 8.94575 11.6827 9.30123 11.9586C9.65671 12.2344 10.0646 12.4372 10.5009 12.5549C12.7564 13.0358 15.1081 12.8059 17.2241 11.8974C20.7036 10.5711 23.4099 6.88322 22.616 3.79435C21.8183 0.659688 16.5462 -0.374178 11.5563 1.37818C8.43086 2.41595 5.54296 4.05059 3.05725 6.18889C0.308425 8.72587 -0.125872 10.9297 0.0519706 11.8542C0.696327 15.1325 5.27255 17.2651 7.10381 18.8483C7.01102 18.9005 6.92596 18.9463 6.8538 18.9844C5.93752 19.4333 2.44511 21.2353 1.57007 23.1402C0.581631 25.302 1.72859 26.8471 2.48635 27.0557C3.62816 27.3254 4.82681 27.2365 5.91498 26.8016C7.00315 26.3666 7.92652 25.6072 8.55619 24.6293C9.09237 23.8183 9.42195 22.8914 9.51687 21.9275C9.61178 20.9637 9.46922 19.9915 9.10131 19.0938C9.0951 19.0793 9.08638 19.0659 9.07554 19.0543L9.79335 18.6385C10.2612 18.3651 10.7225 18.112 11.1181 17.9035C10.8499 18.6671 10.6924 19.4642 10.6503 20.2713C10.5593 21.5084 10.9429 22.734 11.7251 23.7048C11.8442 23.8059 11.9823 23.8827 12.1317 23.9307C12.281 23.9788 12.4385 23.9971 12.595 23.9846C13.3682 23.9846 13.7226 23.3488 14.1105 22.5934C14.5848 21.6702 15.0126 20.5969 15.0126 20.5969C15.0126 20.5969 14.4791 23.4975 15.9289 23.4975C16.456 23.4975 16.9895 22.821 17.2279 22.4802V22.4866C17.2279 22.4866 17.2408 22.4675 17.2679 22.4217L17.3529 22.2857V22.2729C17.5643 21.9092 18.0385 21.0827 18.7435 19.7105C19.6533 17.9416 20.5296 15.7302 20.5296 15.7302C20.6141 16.2162 20.7308 16.6962 20.8789 17.1672C21.0911 17.7381 21.3421 18.2942 21.6302 18.8318C21.4188 19.1243 21.2874 19.2871 21.2874 19.2871L21.2938 19.2934C21.1224 19.5147 20.9381 19.755 20.7332 19.989C20.1236 20.6504 19.558 21.35 19.0399 22.0835C18.9629 22.2066 18.9364 22.3542 18.9659 22.496C18.9953 22.6377 19.0785 22.7631 19.1984 22.8465C19.4697 22.9858 19.7789 23.0361 20.0811 22.9902C20.5366 22.9648 20.9845 22.8637 21.4059 22.6913C21.8132 22.5499 22.1974 22.3507 22.5464 22.1C22.9063 21.854 23.196 21.5208 23.3876 21.1324C23.5792 20.744 23.6663 20.3134 23.6406 19.8822C23.6 19.339 23.4594 18.8076 23.2256 18.3142C23.2913 18.2227 23.3545 18.1324 23.4163 18.0408C24.149 16.9617 24.8094 15.8364 25.3932 14.6722C25.4777 15.1582 25.5944 15.6382 25.7425 16.1092C25.9175 16.6025 26.133 17.081 26.3868 17.5398C25.5439 18.1797 24.88 19.0208 24.4576 19.9839C24.0426 21.1679 24.3648 21.7007 24.9731 21.824C25.3059 21.8467 25.6387 21.7794 25.9358 21.6295C26.3725 21.4878 26.7839 21.2793 27.1549 21.0114C27.5461 20.7836 27.8737 20.4634 28.1084 20.0796C28.343 19.6958 28.4772 19.2604 28.499 18.8127C28.4698 18.3658 28.3675 17.9265 28.1962 17.5118C29.3085 17.083 30.5145 16.9463 31.6963 17.1151C34.833 17.4788 35.4529 19.4104 35.3343 20.2243C35.2787 20.5128 35.1612 20.7862 34.9896 21.0262C34.818 21.2662 34.5963 21.4671 34.3395 21.6155C34.1217 21.7516 34.0495 21.7973 34.0688 21.8952C34.0946 22.0389 34.1977 22.0313 34.3846 22.0059C34.8573 21.8609 35.2744 21.5779 35.5809 21.1942C35.8873 20.8106 36.0687 20.3442 36.1011 19.8568C36.2004 17.9493 34.3549 15.8574 31.0919 15.8765L31.088 15.879ZM6.88601 23.9261C5.84473 25.0452 4.39493 25.4674 3.76862 25.11C3.09591 24.7285 3.3601 23.0754 4.6385 21.8902C5.39684 21.2165 6.21649 20.6133 7.08705 20.0882C7.23912 19.9967 7.46336 19.8669 7.73141 19.7067L7.80358 19.6673L7.96209 19.5694C8.19048 20.3245 8.21119 21.126 8.02209 21.8916C7.83299 22.6572 7.44089 23.3594 6.88601 23.9261ZM14.4649 18.8394C14.1028 19.7105 13.345 21.9423 12.8837 21.8177C12.488 21.7134 12.2393 20.0221 12.8051 18.3511C13.0907 17.5467 13.5068 16.7934 14.0371 16.1206C14.6041 15.4962 15.2304 15.2877 15.3812 15.542C15.2436 16.68 14.9348 17.7914 14.4649 18.8394ZM20.7191 21.7922C20.567 21.8698 20.4227 21.9194 20.3569 21.8838C20.3105 21.8584 20.4227 21.7566 20.4227 21.7566C20.4227 21.7566 21.2075 20.9237 21.5168 20.5473C21.6946 20.326 21.9034 20.0666 22.1302 19.7728V19.8568C22.1302 20.8512 21.1546 21.5214 20.7203 21.7948L20.7191 21.7922ZM25.544 20.7062C25.4319 20.6287 25.4512 20.368 25.8275 19.5554C26.0892 19.0335 26.4547 18.569 26.9023 18.1896C26.9709 18.3821 27.0066 18.5845 27.008 18.7886C27.013 19.2229 26.8723 19.6467 26.6077 19.9938C26.3431 20.3409 25.9696 20.5919 25.5453 20.7075L25.544 20.7062Z" fill="#CD6799"/>
</g>
</svg>
