<svg width="28" height="28" viewBox="0 0 28 28" fill="none" xmlns="http://www.w3.org/2000/svg">
<g id="SVGRepo_iconCarrier">
<g id="Group">
<path id="Vector" d="M23.8024 21.3932C25.5964 19.1412 26.6745 16.2836 26.6737 13.1836C26.6745 9.54767 25.1955 6.24214 22.8123 3.86138C20.4309 1.47771 17.1253 -0.000874612 13.4896 3.88142e-07C9.85365 -0.000874612 6.54839 1.47771 4.16719 3.86138C1.78369 6.24214 0.304938 9.54767 0.305758 13.1836C0.304938 16.8191 1.78369 20.1247 4.16719 22.5059C6.54839 24.8895 9.8537 26.3681 13.4897 26.3673C16.2759 26.3681 18.8661 25.4972 20.9972 24.019L24.9788 28L27.6942 25.2846L23.8024 21.3932ZM20.6997 20.3938C18.8498 22.2408 16.3101 23.3793 13.4896 23.3801C10.6691 23.3793 8.12941 22.2408 6.27933 20.3938C4.43177 18.5435 3.29366 16.004 3.29284 13.1836C3.29366 10.3632 4.43177 7.82365 6.27933 5.97341C8.12941 4.12606 10.6691 2.98796 13.4896 2.98714C16.3101 2.98796 18.8497 4.12606 20.6997 5.97341C22.5476 7.82365 23.6857 10.3632 23.6865 13.1836C23.6857 16.0041 22.5476 18.5435 20.6997 20.3938Z" fill="black"/>
<path id="Vector_2" d="M8.5272 12.8573L8.2157 12.814C7.41956 12.7015 7.13387 12.4248 7.13387 12.0181C7.13387 11.5593 7.46266 11.2305 8.05984 11.2305C8.55302 11.2305 8.99434 11.3776 9.47045 11.6893C9.5136 11.7151 9.55697 11.7064 9.59153 11.663L10.007 11.023C10.0416 10.9708 10.0329 10.9363 9.98949 10.9017C9.52235 10.5471 8.82142 10.3132 8.08588 10.3132C6.87422 10.3132 6.09536 11.0229 6.09536 12.0873C6.09536 13.0649 6.73586 13.6105 7.86942 13.7659L8.18092 13.8092C8.9944 13.9217 9.254 14.1988 9.254 14.6227C9.254 15.1161 8.84729 15.4707 8.1463 15.4707C7.48874 15.4707 6.92612 15.1507 6.54544 14.8477C6.51087 14.8131 6.45898 14.8131 6.42436 14.8565L5.88782 15.4795C5.85326 15.5228 5.87054 15.5744 5.9051 15.6095C6.36371 16.042 7.203 16.3879 8.06859 16.3879C9.53088 16.3879 10.2839 15.6095 10.2839 14.5622C10.2839 13.5495 9.66066 13.0133 8.5272 12.8573Z" fill="black"/>
<path id="Vector_3" d="M15.07 10.4082H11.3836C11.3317 10.4082 11.2972 10.4428 11.2972 10.4949V16.2062C11.2972 16.2583 11.3317 16.2929 11.3836 16.2929H15.07C15.1221 16.2929 15.1567 16.2583 15.1567 16.2062V15.4623C15.1567 15.4102 15.1221 15.3756 15.07 15.3756H12.3702L12.3183 15.3235V13.8354L12.3702 13.7833H14.646C14.6981 13.7833 14.7327 13.7487 14.7327 13.6966V12.9523C14.7327 12.9006 14.6981 12.8661 14.646 12.8661H12.3702L12.3183 12.814V11.3775L12.3702 11.3259H15.07C15.1221 11.3259 15.1567 11.2909 15.1567 11.2392V10.4949C15.1567 10.4428 15.1221 10.4082 15.07 10.4082Z" fill="black"/>
<path id="Vector_4" d="M18.2901 10.3132C17.2776 10.3132 16.5161 10.7979 16.2134 11.7326C16.0921 12.096 16.0575 12.4248 16.0575 13.3507C16.0575 14.2767 16.0921 14.6055 16.2134 14.9689C16.5161 15.9036 17.2777 16.3879 18.2901 16.3879C19.3115 16.3879 20.0724 15.9036 20.3759 14.9689C20.4967 14.6055 20.5317 14.2767 20.5317 13.3507C20.5317 12.4248 20.4967 12.096 20.3759 11.7326C20.0724 10.7979 19.3115 10.3132 18.2901 10.3132ZM19.389 14.7006C19.2248 15.1765 18.8789 15.4707 18.2901 15.4707C17.7104 15.4707 17.3641 15.1765 17.1997 14.7006C17.1305 14.4843 17.0959 14.1813 17.0959 13.3508C17.0959 12.5111 17.1305 12.2169 17.1997 12.0006C17.3642 11.5247 17.7104 11.2305 18.2901 11.2305C18.8789 11.2305 19.2248 11.5247 19.389 12.0006C19.4582 12.2168 19.4931 12.5111 19.4931 13.3508C19.4932 14.1813 19.4582 14.4842 19.389 14.7006Z" fill="black"/>
</g>
</g>
</svg>
